<svg width="75" height="100" viewBox="0 0 75 100" fill="none" xmlns="http://www.w3.org/2000/svg">
<g clip-path="url(#clip0_324_685)">
<path d="M29.4279 49.5833C29.3627 49.5986 29.3205 49.2497 29.2515 49.265C30.0031 51.9263 31.073 54.6298 34.1983 54.9596C37.7799 55.3393 41.5303 52.9847 43.4822 50.1125C48.0724 43.3595 42.4507 34.7428 36.0773 31.6137C29.4432 28.358 20.8073 30.4134 16.2938 36.2345C13.947 39.2601 12.6738 43.0719 12.1331 46.8299C11.65 50.1815 11.7765 53.7325 13.4485 56.7543C15.1396 59.8144 18.1537 62.1306 21.3864 63.3654C24.7533 64.6539 28.1164 64.4008 31.4641 63.2235C34.6815 62.0922 38.0062 60.4011 41.5111 61.1297C44.7937 61.8123 47.4128 64.7075 47.5931 68.086C47.7618 71.2189 45.5415 73.6118 42.4046 73.6425C39.0109 73.677 35.9814 71.6139 33.0402 70.1912C29.9877 68.7148 26.686 67.9019 23.3536 68.9143C19.8717 69.9726 17.1106 72.7874 16.3053 76.3652C15.5652 79.6707 16.4319 83.6972 19.0932 85.9597C21.6932 88.1685 25.0831 87.4323 28.1279 86.8225C31.7901 86.0863 35.8089 85.4765 39.3138 87.1753C42.4315 88.6824 43.6548 91.7195 42.2896 94.9177C41.5802 96.5781 40.4643 98.043 39.3944 99.4849C41.4881 98.2079 43.5129 96.8159 44.5636 94.5074C45.6373 92.1413 45.6757 89.2346 44.7937 86.8034C42.6654 80.9132 36.0888 82.5276 31.5561 80.1156C29.8919 79.2297 28.6801 77.2932 30.4019 75.7785C32.3844 74.0336 35.6095 74.6971 37.7838 75.6442C40.4604 76.8062 42.5619 78.8463 45.0851 80.2651C47.3438 81.5344 49.7942 81.6916 52.3175 81.2967C55.0286 80.8672 57.8894 80.0197 60.1365 78.3861C62.5064 76.6604 63.7795 74.0145 64.3471 71.1959C65.5819 65.0642 64.0326 58.2882 58.4991 54.7947C53.6443 51.7307 48.2296 52.1334 42.9952 53.8935C38.4318 55.4274 33.3508 58.4186 28.3771 57.6784C25.7082 57.2796 23.5952 55.4198 23.461 52.6242C23.3076 49.4913 25.4397 46.1742 28.3695 45.0468C31.0308 44.0229 33.8071 45.3996 34.6009 48.1453C35.0918 49.8517 34.5894 52.467 32.2847 51.7154C31.2379 51.3741 30.5284 50.6148 29.6579 49.9629L29.4279 49.5986V49.5833Z" fill="#F7F5FF"/>
<path d="M46.0323 50.5803C46.1167 50.5075 47.1904 50.0818 47.9459 49.5258C48.6975 48.9697 50.055 47.5049 50.7759 46.2317C51.5198 44.9279 51.7959 43.4707 51.6924 41.979C51.5812 40.3799 51.1019 38.8115 51.1786 37.1971C51.2744 35.2452 52.2945 33.5579 53.7747 32.3231C55.5962 30.8045 58.0351 29.888 60.4165 29.9686C62.7211 30.0453 64.7842 31.188 66.0957 33.0824C68.0208 35.8664 69.0025 41.5226 65.2367 43.3288C63.8217 44.0076 61.8698 43.9539 60.658 42.8763C59.4616 41.8141 59.6112 40.1613 59.7646 38.7233C59.7339 39.379 59.6457 40.679 60.658 40.5371C61.6551 40.3991 62.468 39.2295 62.5141 38.2823C62.5678 37.2162 61.7011 36.4838 60.6964 36.3918C59.7876 36.3074 58.8864 36.6947 58.269 37.3581C56.8195 38.9189 57.3333 40.9781 57.2605 42.8878C57.1761 45.1695 55.3584 46.9296 53.4142 47.8883C51.5774 48.7933 49.568 49.5219 48.5134 49.8019C47.4588 50.0818 46.0323 50.5765 46.0323 50.5765V50.5803Z" fill="#F7F5FF"/>
<path d="M47.2671 39.5362C46.9603 37.4156 46.5653 35.0726 47.432 33.0248C48.2411 31.119 50.0358 30.1756 51.6502 29.0482C53.4219 27.8134 54.6222 26.1606 54.6222 23.9288C54.6222 21.605 53.4832 19.3041 51.6579 17.8738C48.4482 15.3582 42.7344 15.1818 40.077 18.6024C38.8 20.2436 38.3245 22.4563 38.6734 24.4925C39.0339 26.5901 40.3914 28.8565 42.5734 29.4163C44.9624 30.0299 47.1521 27.9131 47.3438 25.5969C47.4128 24.7686 47.1597 23.8406 46.2624 23.6105C45.2922 23.3613 44.1801 23.8866 43.2943 24.2241C43.5244 23.4303 43.835 22.7094 44.6556 22.3911C45.4878 22.069 46.5193 22.1495 47.3553 22.4294C48.893 22.9433 49.614 24.6536 49.683 26.1798C49.7559 27.7751 48.2565 28.9638 47.2403 30.0721C46.2892 31.1075 45.8444 32.649 45.737 34.2136C45.6067 36.1041 46.7226 38.1097 47.2824 39.8737L47.2633 39.5362H47.2671Z" fill="#F7F5FF"/>
<path d="M11.0134 61.5554C10.9904 64.512 10.0049 67.2346 6.2238 67.2346C10.0049 67.2346 10.9942 70.1567 11.0134 72.9139C10.9904 70.1529 12.5281 67.2346 15.7608 67.2346C12.5281 67.2346 10.9904 64.5081 11.0134 61.5554Z" fill="#F7F5FF"/>
<path d="M31.7747 17.9658C31.7594 20.2781 30.9848 22.4103 28.0243 22.4103C30.9848 22.4103 31.7555 24.6958 31.7747 26.8547C31.7594 24.6958 32.9597 22.4103 35.4906 22.4103C32.9597 22.4103 31.7594 20.2781 31.7747 17.9658Z" fill="#F7F5FF"/>
<path d="M64.0863 46.1358C64.071 48.4482 63.2963 50.5803 60.3359 50.5803C63.2963 50.5803 64.0671 52.8658 64.0863 55.0248C64.071 52.8658 65.2712 50.5803 67.8022 50.5803C65.2712 50.5803 64.071 48.4482 64.0863 46.1358Z" fill="#F7F5FF"/>
<path d="M39.6168 64.4621C39.6053 65.904 39.1259 67.2346 37.2776 67.2346C39.1221 67.2346 39.6053 68.6612 39.6168 70.0072C39.6053 68.6612 40.3569 67.2346 41.933 67.2346C40.3531 67.2346 39.6053 65.904 39.6168 64.4621Z" fill="#F7F5FF"/>
<path d="M59.2545 21.3135C59.243 22.7554 58.7637 24.0861 56.9153 24.0861C58.7598 24.0861 59.243 25.5126 59.2545 26.8586C59.243 25.5126 59.9946 24.0861 61.5707 24.0861C59.9908 24.0861 59.243 22.7554 59.2545 21.3135Z" fill="#F7F5FF"/>
<path d="M35.5021 88.9316C35.4906 90.3735 35.0113 91.7042 33.1629 91.7042C35.0074 91.7042 35.4906 93.1307 35.5021 94.4767C35.4906 93.1307 36.2422 91.7042 37.8183 91.7042C36.2384 91.7042 35.4906 90.3735 35.5021 88.9316Z" fill="#F7F5FF"/>
<path d="M11.8992 29.1786C11.8877 30.6205 11.4084 31.9511 9.56003 31.9511C11.4045 31.9511 11.8877 33.3776 11.8992 34.7236C11.8877 33.3776 12.6393 31.9511 14.2154 31.9511C12.6355 31.9511 11.8877 30.6205 11.8992 29.1786Z" fill="#F7F5FF"/>
<path d="M24.1206 51.3204C24.1091 52.7623 23.6297 54.093 21.7814 54.093C23.6259 54.093 24.1091 55.5195 24.1206 56.8655C24.1091 55.5195 24.8607 54.093 26.4368 54.093C24.8568 54.093 24.1091 52.7623 24.1206 51.3204Z" fill="white"/>
<path d="M13.3296 62.0002C13.3181 63.4421 12.8387 64.7727 10.9904 64.7727C12.8349 64.7727 13.3181 66.1992 13.3296 67.5452C13.3181 66.1992 14.0697 64.7727 15.6458 64.7727C14.0659 64.7727 13.3181 63.4421 13.3296 62.0002Z" fill="white"/>
<path d="M33.1706 47.4473C33.1629 48.5402 32.7986 49.5449 31.4027 49.5449C32.7986 49.5449 33.1629 50.6225 33.1706 51.6425C33.1629 50.6225 33.7304 49.5449 34.923 49.5449C33.7304 49.5449 33.1629 48.5402 33.1706 47.4473Z" fill="white"/>
<path d="M6.23146 37.4962C6.22379 38.5891 5.85949 39.5938 4.46365 39.5938C5.85949 39.5938 6.22379 40.6713 6.23146 41.6914C6.22379 40.6713 6.79134 39.5938 7.98394 39.5938C6.79134 39.5938 6.22379 38.5891 6.23146 37.4962Z" fill="white"/>
<path d="M35.5213 0C35.5136 0.958687 35.1953 1.84068 33.9682 1.84068C35.1953 1.84068 35.5136 2.78786 35.5213 3.68136C35.5136 2.78786 36.0121 1.84068 37.059 1.84068C36.0121 1.84068 35.5136 0.958687 35.5213 0Z" fill="white"/>
<path d="M35.9968 35.6555C35.9891 36.6142 35.6708 37.4962 34.4437 37.4962C35.6708 37.4962 35.9891 38.4433 35.9968 39.3368C35.9891 38.4433 36.4876 37.4962 37.5345 37.4962C36.4876 37.4962 35.9891 36.6142 35.9968 35.6555Z" fill="white"/>
<path d="M49.9016 54.3499C49.8939 55.3086 49.5756 56.1906 48.3485 56.1906C49.5756 56.1906 49.8939 57.1377 49.9016 58.0312C49.8939 57.1377 50.3924 56.1906 51.4393 56.1906C50.3924 56.1906 49.8939 55.3086 49.9016 54.3499Z" fill="white"/>
<path d="M28.6571 74.4631C28.6494 75.4218 28.3311 76.3038 27.104 76.3038C28.3311 76.3038 28.6494 77.251 28.6571 78.1445C28.6494 77.251 29.1479 76.3038 30.1948 76.3038C29.1479 76.3038 28.6494 75.4218 28.6571 74.4631Z" fill="white"/>
<path d="M18.3109 16.1251C18.3033 17.0838 17.985 17.9658 16.7579 17.9658C17.985 17.9658 18.3033 18.913 18.3109 19.8103C18.3033 18.9168 18.8018 17.9658 19.8487 17.9658C18.8018 17.9658 18.3033 17.0838 18.3109 16.1251Z" fill="white"/>
<path d="M55.7534 68.6727C55.7457 69.7656 55.3814 70.7703 53.9856 70.7703C55.3814 70.7703 55.7457 71.8478 55.7534 72.8679C55.7457 71.8478 56.3133 70.7703 57.5059 70.7703C56.3133 70.7703 55.7457 69.7656 55.7534 68.6727Z" fill="white"/>
<path d="M16.5508 41.6914C16.5431 42.7843 16.1788 43.789 14.783 43.789C16.1788 43.789 16.5431 44.8666 16.5508 45.8866C16.5431 44.8666 17.1106 43.789 18.3033 43.789C17.1106 43.789 16.5431 42.7843 16.5508 41.6914Z" fill="white"/>
<path d="M73.2475 55.0286C73.2399 56.1215 72.8756 57.1262 71.4797 57.1262C72.8756 57.1262 73.2399 58.2038 73.2475 59.2238C73.2399 58.2038 73.8074 57.1262 75 57.1262C73.8074 57.1262 73.2399 56.1215 73.2475 55.0286Z" fill="#F7F5FF"/>
<path d="M16.5508 15.8682C16.5431 16.9611 16.1788 17.9658 14.783 17.9658C16.1788 17.9658 16.5431 19.0434 16.5508 20.0634C16.5431 19.0434 17.1106 17.9658 18.3033 17.9658C17.1106 17.9658 16.5431 16.9611 16.5508 15.8682Z" fill="#F7F5FF"/>
<path d="M1.76782 51.9953C1.76015 53.0882 1.39585 54.093 0 54.093C1.39585 54.093 1.76015 55.1705 1.76782 56.1906C1.76015 55.1705 2.32769 54.093 3.5203 54.093C2.32769 54.093 1.76015 53.0882 1.76782 51.9953Z" fill="#F7F5FF"/>
<path d="M29.796 5.0542C29.7883 6.1471 29.424 7.15181 28.0282 7.15181C29.424 7.15181 29.7883 8.22937 29.796 9.24941C29.7883 8.22937 30.3559 7.15181 31.5485 7.15181C30.3559 7.15181 29.7883 6.1471 29.796 5.0542Z" fill="#F7F5FF"/>
<path d="M46.04 27.9707C46.0323 29.0636 45.668 30.0683 44.2722 30.0683C45.668 30.0683 46.0323 31.1458 46.04 32.1659C46.0323 31.1458 46.5999 30.0683 47.7925 30.0683C46.5999 30.0683 46.0323 29.0636 46.04 27.9707Z" fill="white"/>
<path d="M53.9894 81.5037C53.9817 82.5966 53.6174 83.6013 52.2216 83.6013C53.6174 83.6013 53.9817 84.6789 53.9894 85.6989C53.9817 84.6789 54.5493 83.6013 55.7419 83.6013C54.5493 83.6013 53.9817 82.5966 53.9894 81.5037Z" fill="white"/>
<path d="M66.4063 47.4473C66.3987 48.5402 66.0344 49.5449 64.6385 49.5449C66.0344 49.5449 66.3987 50.6225 66.4063 51.6425C66.3987 50.6225 66.9662 49.5449 68.1588 49.5449C66.9662 49.5449 66.3987 48.5402 66.4063 47.4473Z" fill="white"/>
<path d="M37.2853 88.7092C37.2776 89.7983 36.9133 90.8068 35.5174 90.8068C36.9133 90.8068 37.2776 91.8844 37.2853 92.9044C37.2776 91.8844 37.8451 90.8068 39.0377 90.8068C37.8451 90.8068 37.2776 89.7983 37.2853 88.7092Z" fill="white"/>
<path d="M38.3283 63.1276C38.3168 64.5695 37.8375 65.9001 35.9891 65.9001C37.8336 65.9001 38.3168 67.3267 38.3283 68.6727C38.3168 67.3267 39.0684 65.9001 40.6445 65.9001C39.0646 65.9001 38.3168 64.5695 38.3283 63.1276Z" fill="white"/>
<path d="M64.0825 58.7828C64.071 60.2247 63.5916 61.5554 61.7433 61.5554C63.5878 61.5554 64.071 62.9819 64.0825 64.3279C64.071 62.9819 64.8226 61.5554 66.3987 61.5554C64.8187 61.5554 64.071 60.2247 64.0825 58.7828Z" fill="white"/>
<path d="M24.7878 27.2957C24.7763 28.7376 24.297 30.0683 22.4486 30.0683C24.2931 30.0683 24.7763 31.4948 24.7878 32.8408C24.7763 31.4948 25.5279 30.0683 27.104 30.0683C25.5241 30.0683 24.7763 28.7376 24.7878 27.2957Z" fill="white"/>
<path d="M49.9054 13.2337C49.8939 14.6756 49.4146 16.0062 47.5662 16.0062C49.4107 16.0062 49.8939 17.4328 49.9054 18.7788C49.8939 17.4328 50.6455 16.0062 52.2216 16.0062C50.6417 16.0062 49.8939 14.6756 49.9054 13.2337Z" fill="white"/>
<path d="M16.5546 73.5313C16.5431 74.9732 16.0638 76.3038 14.2154 76.3038C16.0599 76.3038 16.5431 77.7303 16.5546 79.0763C16.5431 77.7303 17.2947 76.3038 18.8708 76.3038C17.2909 76.3038 16.5431 74.9732 16.5546 73.5313Z" fill="white"/>
<path d="M48.3715 41.9023C48.36 43.3442 47.8807 44.6748 46.0323 44.6748C47.8768 44.6748 48.36 46.1013 48.3715 47.4473C48.36 46.1013 49.1116 44.6748 50.6877 44.6748C49.1078 44.6748 48.36 43.3442 48.3715 41.9023Z" fill="white"/>
<path d="M70.1414 34.7236C70.1299 36.1655 69.6505 37.4962 67.8022 37.4962C69.6467 37.4962 70.1299 38.9227 70.1414 40.2687C70.1299 38.9227 70.8815 37.4962 72.4576 37.4962C70.8776 37.4962 70.1299 36.1655 70.1414 34.7236Z" fill="white"/>
</g>
<defs>
<clipPath id="clip0_324_685">
<rect width="75" height="99.481" fill="white"/>
</clipPath>
</defs>
</svg>
