<svg width="68" height="62" viewBox="0 0 68 62" fill="none" xmlns="http://www.w3.org/2000/svg">
<path d="M22.6653 19.4883C21.2881 20.4319 20.3228 22.0204 19.8496 22.9315C19.6116 23.3897 19.3991 23.8612 19.2074 24.3407C17.9437 27.5028 18.2143 30.5127 18.7612 31.9142C19.5168 34.1735 21.4059 35.4287 25.3101 37.6879C26.4353 38.1976 27.3205 38.6062 28.0881 38.9882C32.2266 41.0479 38.962 40.8321 35.2593 38.0644C33.2443 36.5583 28.9623 33.4202 26.3176 32.4162C23.6728 31.4122 23.5469 28.1488 24.3025 26.3915C25.0582 24.6342 25.9398 23.7558 27.0732 22.375C28.2067 20.9942 27.2831 19.6974 26.6954 19.1116C25.8894 18.2079 24.6804 18.1077 22.6653 19.4883Z" fill="white"/>
<ellipse cx="29.718" cy="11.7064" rx="1.76316" ry="1.7572" fill="white"/>
<ellipse cx="34.2518" cy="3.92446" rx="3.02256" ry="3.01235" fill="white"/>
<path d="M42.0601 41.2022C42.8662 35.78 37.8622 32.4162 35.2594 31.4121C31.893 30.2938 31.6637 25.6898 35.1803 26.1549C35.7739 26.2334 36.3304 26.3708 36.7707 26.5171C39.2895 27.2199 42.9417 30.0733 44.453 31.4121C47.6771 34.4245 47.3076 40.9512 46.7199 43.838C45.3094 49.5615 38.9117 52.0802 35.8891 52.6241C33.4291 53.2078 30.3676 52.4624 27.7486 51.4236C24.6666 50.2011 21.5404 45.0877 24.8268 44.6483C26.431 44.4338 27.504 45.328 29.0072 45.928C29.5325 46.1377 30.0966 46.3445 30.6563 46.5388C32.6077 47.2162 34.7263 47.6845 36.6909 47.0466C40.1436 45.9256 41.6932 42.898 42.0601 41.2022Z" fill="white"/>
<ellipse cx="34" cy="60.7825" rx="33.5" ry="1.12963" fill="white"/>
</svg>
