<svg width="266" height="243" viewBox="0 0 266 243" fill="none" xmlns="http://www.w3.org/2000/svg">
<path d="M88 74C81.2165 78.6636 76.9494 87.2816 75.8086 89.7946C75.5957 90.2636 75.3875 90.7341 75.1753 91.2035C69.1372 104.56 70.2069 117.604 72.5 123.5C75.5 132.5 83 137.5 98.5 146.5C110.402 151.91 115.54 154.458 123.109 159.775C129.871 164.524 141.277 169.141 144.366 161.477C146.295 156.692 141.53 150.647 138 148C130 142 113 129.499 102.5 125.5C92 121.5 91.5 108.5 94.5 101.5C97.5 94.4991 101 91 105.5 85.4996C110 79.9991 106.333 74.8329 104 72.4995C100.8 68.8995 96 68.5 88 74Z" fill="#5E47D2"/>
<circle cx="116" cy="43" r="7" fill="#5E47D2"/>
<circle cx="134" cy="12" r="12" fill="#5E47D2"/>
<path d="M165 160.5C168.2 138.9 148.333 125.5 138 121.5C131.637 119.379 127.43 116.79 124.782 114.477C121.642 111.735 120.688 106.861 123.537 103.818C128.353 98.6716 138.479 100.159 144 102C154 104.8 168.5 116.167 174.5 121.5C187.3 133.5 185.833 159.5 183.5 171C177.9 193.8 152.5 203.833 140.5 206C127.903 208.999 111.332 203.19 99.6839 197.425C93.2612 194.247 87.446 188.068 88.9068 181.052C90.0727 175.453 94.7517 173.937 99.2862 174.11C102.792 174.245 105.937 176.105 109.118 177.584C114.415 180.047 122.099 182.646 127.735 184.38C130.228 185.147 132.828 185.588 135.428 185.388C154.996 183.883 163.278 168.485 165 160.5Z" fill="#5E47D2"/>
<ellipse cx="133" cy="238.5" rx="133" ry="4.5" fill="#9E9E9E"/>
</svg>
