<svg width="69" height="94" viewBox="0 0 69 94" fill="none" xmlns="http://www.w3.org/2000/svg">
<g opacity="0.9" clip-path="url(#clip0_323_649)">
<path d="M19.7821 39.3309C19.7117 39.3474 19.6661 38.9721 19.5916 38.9886C20.4033 41.851 21.5588 44.7588 24.9341 45.1136C28.8023 45.5219 32.8527 42.9894 34.9608 39.9001C39.9182 32.6367 33.8467 23.3687 26.9635 20.0031C19.7987 16.5013 10.4719 18.7121 5.59735 24.9732C3.06274 28.2275 1.68775 32.3273 1.1038 36.3694C0.581963 39.9743 0.718633 43.7937 2.52434 47.0439C4.35075 50.3353 7.60599 52.8265 11.0973 54.1547C14.7336 55.5405 18.3657 55.2683 21.9812 54.002C25.456 52.7853 29.0467 50.9663 32.832 51.75C36.3772 52.4842 39.2059 55.5983 39.4005 59.232C39.5827 62.6018 37.1848 65.1755 33.797 65.2085C30.1318 65.2457 26.86 63.0266 23.6834 61.4964C20.3868 59.9084 16.8209 59.034 13.2219 60.1229C9.4614 61.2613 6.4795 64.2888 5.60978 68.137C4.81046 71.6924 5.74645 76.0232 8.62067 78.4567C11.4286 80.8325 15.0897 80.0406 18.3781 79.3847C22.3333 78.5928 26.6736 77.937 30.4589 79.7642C33.826 81.3852 35.1472 84.6518 33.6728 88.0917C32.9066 89.8777 31.7014 91.4533 30.5459 93.0041C32.8072 91.6306 34.9939 90.1334 36.1287 87.6504C37.2883 85.1055 37.3297 81.9791 36.3772 79.3641C34.0786 73.0288 26.9759 74.7652 22.0806 72.1708C20.2832 71.2181 18.9745 69.1351 20.834 67.5059C22.9752 65.6292 26.4582 66.3428 28.8065 67.3616C31.6973 68.6113 33.9668 70.8056 36.6919 72.3317C39.1313 73.6969 41.7777 73.866 44.5029 73.4412C47.4309 72.9793 50.5205 72.0677 52.9474 70.3107C55.5069 68.4546 56.8819 65.6086 57.4948 62.5771C58.8284 55.9818 57.1552 48.6937 51.179 44.9362C45.9358 41.6407 40.088 42.0737 34.4348 43.9669C29.5064 45.6168 24.0189 48.8339 18.6473 48.0379C15.7648 47.6089 13.4828 45.6085 13.3379 42.6017C13.1722 39.2319 15.4749 35.6641 18.639 34.4515C21.5132 33.3502 24.5117 34.831 25.369 37.7842C25.8991 39.6196 25.3566 42.4326 22.8675 41.6242C21.7369 41.2571 20.9707 40.4404 20.0306 39.7392L19.7821 39.3474V39.3309Z" fill="#BCB0F5"/>
<path d="M37.7149 40.4033C37.806 40.3249 38.9656 39.8671 39.7815 39.269C40.5933 38.671 42.0594 37.0954 42.838 35.726C43.6414 34.3236 43.9396 32.7563 43.8278 31.1518C43.7077 29.4319 43.19 27.7449 43.2728 26.0085C43.3764 23.9091 44.478 22.0942 46.0766 20.7661C48.0439 19.1328 50.6779 18.147 53.2498 18.2336C55.7388 18.3161 57.967 19.5453 59.3834 21.5828C61.4624 24.5772 62.5226 30.661 58.4557 32.6037C56.9274 33.3337 54.8194 33.276 53.5107 32.117C52.2185 30.9745 52.38 29.1968 52.5457 27.6501C52.5126 28.3554 52.4173 29.7536 53.5107 29.601C54.5875 29.4525 55.4655 28.1945 55.5152 27.1757C55.5732 26.0291 54.6372 25.2413 53.5521 25.1423C52.5706 25.0516 51.5973 25.4682 50.9305 26.1817C49.365 27.8604 49.92 30.0753 49.8413 32.1294C49.7502 34.5835 47.7871 36.4767 45.6873 37.5078C43.7035 38.4812 41.5334 39.2649 40.3945 39.566C39.2555 39.8671 37.7149 40.3992 37.7149 40.3992V40.4033Z" fill="#BCB0F5"/>
<path d="M39.0485 28.5245C38.7172 26.2436 38.2906 23.7235 39.2266 21.5209C40.1004 19.471 42.0387 18.4564 43.7822 17.2437C45.6956 15.9156 46.9919 14.1379 46.9919 11.7374C46.9919 9.23792 45.7619 6.76316 43.7905 5.22469C40.3241 2.51897 34.1532 2.32923 31.2831 6.00836C29.904 7.77369 29.3904 10.1536 29.7673 12.3437C30.1566 14.5999 31.6227 17.0375 33.9792 17.6397C36.5594 18.2996 38.9242 16.0229 39.1313 13.5316C39.2058 12.6407 38.9325 11.6425 37.9634 11.3951C36.9156 11.127 35.7145 11.692 34.7579 12.055C35.0063 11.2012 35.3418 10.4258 36.2281 10.0835C37.1268 9.73699 38.2409 9.82361 39.1437 10.1247C40.8045 10.6774 41.5831 12.517 41.6576 14.1585C41.7363 15.8744 40.117 17.153 39.0195 18.345C37.9924 19.4586 37.512 21.1167 37.396 22.7996C37.2552 24.833 38.4604 26.9901 39.065 28.8874L39.0443 28.5245H39.0485Z" fill="#BCB0F5"/>
<path d="M57.2132 35.6229C57.1966 38.11 56.3601 40.4033 53.1628 40.4033C56.3601 40.4033 57.1925 42.8615 57.2132 45.1837C57.1966 42.8615 58.4929 40.4033 61.2264 40.4033C58.4929 40.4033 57.1966 38.11 57.2132 35.6229Z" fill="#BCB0F5"/>
<path d="M30.7861 55.3343C30.7737 56.8851 30.256 58.3164 28.2598 58.3164C30.2519 58.3164 30.7737 59.8507 30.7861 61.2984C30.7737 59.8507 31.5854 58.3164 33.2876 58.3164C31.5813 58.3164 30.7737 56.8851 30.7861 55.3343Z" fill="#BCB0F5"/>
<path d="M51.9949 8.92445C51.9825 10.4753 51.4648 11.9065 49.4686 11.9065C51.4606 11.9065 51.9825 13.4409 51.9949 14.8886C51.9825 13.4409 52.7942 11.9065 54.4964 11.9065C52.7901 11.9065 51.9825 10.4753 51.9949 8.92445Z" fill="#BCB0F5"/>
<path d="M26.3423 81.6533C26.3298 83.2041 25.8121 84.6353 23.8159 84.6353C25.808 84.6353 26.3298 86.1697 26.3423 87.6174C26.3298 86.1697 27.1416 84.6353 28.8437 84.6353C27.1374 84.6353 26.3298 83.2041 26.3423 81.6533Z" fill="#BCB0F5"/>
<path d="M14.0502 41.1993C14.0378 42.7502 13.5201 44.1814 11.5239 44.1814C13.516 44.1814 14.0378 45.7157 14.0502 47.1635C14.0378 45.7157 14.8495 44.1814 16.5517 44.1814C14.8454 44.1814 14.0378 42.7502 14.0502 41.1993Z" fill="white"/>
<path d="M23.8242 37.0335C23.8159 38.209 23.4225 39.2896 21.915 39.2896C23.4225 39.2896 23.8159 40.4487 23.8242 41.5458C23.8159 40.4487 24.4289 39.2896 25.7169 39.2896C24.4289 39.2896 23.8159 38.209 23.8242 37.0335Z" fill="white"/>
<path d="M26.8765 24.3504C26.8682 25.3815 26.5245 26.3302 25.1992 26.3302C26.5245 26.3302 26.8682 27.349 26.8765 28.31C26.8682 27.349 27.4066 26.3302 28.5373 26.3302C27.4066 26.3302 26.8682 25.3815 26.8765 24.3504Z" fill="white"/>
<path d="M41.8937 44.4577C41.8854 45.4889 41.5417 46.4376 40.2164 46.4376C41.5417 46.4376 41.8854 47.4563 41.8937 48.4174C41.8854 47.4563 42.4238 46.4376 43.5545 46.4376C42.4238 46.4376 41.8854 45.4889 41.8937 44.4577Z" fill="white"/>
<path d="M18.9496 66.0912C18.9414 67.1223 18.5976 68.071 17.2723 68.071C18.5976 68.071 18.9414 69.0898 18.9496 70.0508C18.9414 69.0898 19.4798 68.071 20.6104 68.071C19.4798 68.071 18.9414 67.1223 18.9496 66.0912Z" fill="white"/>
<path d="M48.2137 59.8631C48.2054 61.0386 47.8119 62.1192 46.3044 62.1192C47.8119 62.1192 48.2054 63.2782 48.2137 64.3754C48.2054 63.2782 48.8183 62.1192 50.1063 62.1192C48.8183 62.1192 48.2054 61.0386 48.2137 59.8631Z" fill="white"/>
<path d="M5.87483 30.8425C5.86655 32.018 5.4731 33.0986 3.96559 33.0986C5.4731 33.0986 5.86655 34.2577 5.87483 35.3548C5.86655 34.2577 6.4795 33.0986 7.76751 33.0986C6.4795 33.0986 5.86655 32.018 5.87483 30.8425Z" fill="white"/>
<path d="M67.1073 45.1878C67.099 46.3633 66.7056 47.444 65.1981 47.444C66.7056 47.444 67.099 48.603 67.1073 49.7001C67.099 48.603 67.712 47.444 69 47.444C67.712 47.444 67.099 46.3633 67.1073 45.1878Z" fill="#BCB0F5"/>
<path d="M37.7232 16.0847C37.7149 17.2602 37.3215 18.3409 35.8139 18.3409C37.3215 18.3409 37.7149 19.4999 37.7232 20.597C37.7149 19.4999 38.3278 18.3409 39.6159 18.3409C38.3278 18.3409 37.7149 17.2602 37.7232 16.0847Z" fill="white"/>
<path d="M46.3086 73.6639C46.3003 74.8394 45.9068 75.9201 44.3993 75.9201C45.9068 75.9201 46.3003 77.0791 46.3086 78.1762C46.3003 77.0791 46.9132 75.9201 48.2012 75.9201C46.9132 75.9201 46.3003 74.8394 46.3086 73.6639Z" fill="white"/>
<path d="M59.7188 37.0335C59.7106 38.209 59.3171 39.2896 57.8096 39.2896C59.3171 39.2896 59.7106 40.4487 59.7188 41.5458C59.7106 40.4487 60.3235 39.2896 61.6115 39.2896C60.3235 39.2896 59.7106 38.209 59.7188 37.0335Z" fill="white"/>
<path d="M28.2681 81.414C28.2598 82.5854 27.8663 83.6702 26.3588 83.6702C27.8663 83.6702 28.2598 84.8292 28.2681 85.9263C28.2598 84.8292 28.8727 83.6702 30.1608 83.6702C28.8727 83.6702 28.2598 82.5854 28.2681 81.414Z" fill="white"/>
<path d="M29.3946 53.8989C29.3821 55.4498 28.8645 56.881 26.8682 56.881C28.8603 56.881 29.3821 58.4153 29.3946 59.8631C29.3821 58.4153 30.1939 56.881 31.8961 56.881C30.1897 56.881 29.3821 55.4498 29.3946 53.8989Z" fill="white"/>
<path d="M57.2091 49.2258C57.1966 50.7766 56.679 52.2078 54.6827 52.2078C56.6748 52.2078 57.1966 53.7422 57.2091 55.1899C57.1966 53.7422 58.0084 52.2078 59.7106 52.2078C58.0042 52.2078 57.1966 50.7766 57.2091 49.2258Z" fill="white"/>
<path d="M14.7708 15.3588C14.7584 16.9096 14.2407 18.3409 12.2445 18.3409C14.2366 18.3409 14.7584 19.8752 14.7708 21.3229C14.7584 19.8752 15.5702 18.3409 17.2723 18.3409C15.566 18.3409 14.7584 16.9096 14.7708 15.3588Z" fill="white"/>
<path d="M41.8978 0.233943C41.8854 1.78479 41.3677 3.21602 39.3715 3.21602C41.3636 3.21602 41.8854 4.75036 41.8978 6.19809C41.8854 4.75036 42.6972 3.21602 44.3993 3.21602C42.693 3.21602 41.8854 1.78479 41.8978 0.233943Z" fill="white"/>
<path d="M5.87897 65.0889C5.86655 66.6398 5.34886 68.071 3.35264 68.071C5.34472 68.071 5.86655 69.6054 5.87897 71.0531C5.86655 69.6054 6.67829 68.071 8.38046 68.071C6.67415 68.071 5.86655 66.6398 5.87897 65.0889Z" fill="white"/>
<path d="M40.2412 31.0693C40.2288 32.6202 39.7111 34.0514 37.7149 34.0514C39.707 34.0514 40.2288 35.5858 40.2412 37.0335C40.2288 35.5858 41.0405 34.0514 42.7427 34.0514C41.0364 34.0514 40.2288 32.6202 40.2412 31.0693Z" fill="white"/>
<path d="M63.7527 23.3481C63.7403 24.899 63.2226 26.3302 61.2263 26.3302C63.2184 26.3302 63.7403 27.8645 63.7527 29.3123C63.7403 27.8645 64.552 26.3302 66.2542 26.3302C64.5479 26.3302 63.7403 24.899 63.7527 23.3481Z" fill="white"/>
</g>
<defs>
<clipPath id="clip0_323_649">
<rect width="69" height="94" fill="white"/>
</clipPath>
</defs>
</svg>
