<svg width="169" height="51" viewBox="0 0 169 51" fill="none" xmlns="http://www.w3.org/2000/svg">
<path d="M0.122317 43.88L3.64232 36.29C3.99232 35.55 4.88232 35.25 5.60232 35.64C9.91232 38.02 15.8623 39.59 21.2823 39.59C27.8223 39.59 30.2723 37.86 30.2723 35.14C30.2723 27.15 0.762317 35.32 0.762317 15.8C0.772317 6.54 9.12232 0 23.3823 0C29.5323 0 36.3023 1.29 40.9523 3.6C41.6423 3.95 41.9423 4.78 41.6123 5.48L38.0923 12.99C37.7623 13.7 36.9023 14.02 36.1923 13.67C31.8023 11.47 27.4423 10.71 23.3823 10.71C17.0223 10.71 14.3023 12.71 14.3023 15.25C14.3023 23.6 43.8123 15.52 43.8123 34.77C43.8123 43.85 35.3723 50.3 20.7523 50.3C13.1323 50.3 5.43232 48.37 0.722317 45.72C0.0723169 45.36 -0.177683 44.55 0.132317 43.88H0.122317Z" fill="#425EAB"/>
<path d="M95.7923 21.73V48.18C95.7923 48.97 95.1523 49.61 94.3623 49.61H83.9623C83.1723 49.61 82.5323 48.97 82.5323 48.18V47.48C82.5323 46.22 81.0623 45.62 80.1223 46.45C77.2423 49 73.0323 50.33 67.6423 50.33C56.2023 50.33 49.3923 43.97 49.3923 35.53C49.3923 27.09 55.4723 20.91 70.3623 20.91H80.1123C80.9523 20.91 81.6323 20.18 81.5423 19.34C80.9523 14.22 77.3123 11.28 70.3723 11.28C65.7923 11.28 61.0723 12.63 57.5923 14.89C56.8823 15.35 55.9323 15.11 55.5423 14.35L51.7923 7.05C51.4523 6.38 51.6923 5.57 52.3223 5.17C57.6323 1.84 64.9923 0.0300007 72.2823 0.0300007C87.1723 0.0300007 95.8023 6.93 95.8023 21.73H95.7923ZM81.6323 33.89V30.61C81.6323 29.82 80.9923 29.18 80.2023 29.18H71.9123C65.2823 29.18 63.1923 31.63 63.1923 34.9C63.1923 38.44 66.1923 40.8 71.1823 40.8C75.8123 40.8 79.8223 38.71 81.5223 34.44C81.5923 34.27 81.6223 34.08 81.6223 33.89H81.6323Z" fill="#425EAB"/>
<path d="M145.152 40.13V48.18C145.152 48.97 144.512 49.6 143.732 49.6H102.992C102.202 49.6 101.572 48.96 101.572 48.18V41.59C101.572 41.25 101.692 40.93 101.912 40.67L124.472 13.99C125.252 13.06 124.592 11.65 123.382 11.65H103.632C102.842 11.65 102.212 11.01 102.212 10.23V2.17C102.212 1.38 102.852 0.75 103.632 0.75H142.912C143.702 0.75 144.332 1.39 144.332 2.17V8.76C144.332 9.1 144.212 9.42 143.992 9.68L121.432 36.36C120.652 37.29 121.312 38.7 122.522 38.7H143.732C144.522 38.7 145.152 39.34 145.152 40.12V40.13Z" fill="#425EAB"/>
<path d="M161.907 44.3766C162.212 41.3044 159.969 38.5666 156.896 38.2616C153.824 37.9566 151.086 40.1998 150.781 43.272C150.476 46.3442 152.72 49.0819 155.792 49.3869C158.864 49.6919 161.602 47.4487 161.907 44.3766Z" fill="#425EAB"/>
<path d="M156.812 31.78L153.422 21.57C153.092 20.56 153.932 19.55 154.982 19.71L164.502 21.08C165.542 21.23 166.062 22.42 165.462 23.28L159.312 32.14C158.652 33.1 157.172 32.89 156.812 31.78Z" fill="#B8E0D3"/>
<path d="M154.637 12.5373L156.252 1.53512C156.364 0.773284 157.067 0.249893 157.829 0.361712L167.199 1.73694C167.931 1.84441 168.437 2.52517 168.33 3.25733L166.708 14.3089C166.597 15.0609 165.894 15.5843 165.142 15.4739L155.802 14.103C155.05 13.9927 154.527 13.2892 154.637 12.5373Z" fill="#E96CA2"/>
</svg>
